<?xml version="1.0" encoding="UTF-8" standalone="no"?>
<!-- Created with Inkscape (http://www.inkscape.org/) -->

<svg
   xmlns:dc="http://purl.org/dc/elements/1.1/"
   xmlns:cc="http://creativecommons.org/ns#"
   xmlns:rdf="http://www.w3.org/1999/02/22-rdf-syntax-ns#"
   xmlns:svg="http://www.w3.org/2000/svg"
   xmlns="http://www.w3.org/2000/svg"
   xmlns:sodipodi="http://sodipodi.sourceforge.net/DTD/sodipodi-0.dtd"
   xmlns:inkscape="http://www.inkscape.org/namespaces/inkscape"
   id="svg4385"
   version="1.1"
   inkscape:version="0.91 r13725"
   xml:space="preserve"
   width="714.95209"
   height="898.14954"
   viewBox="0 0 714.95209 898.14954"
   sodipodi:docname="api-rejseplanen-map.svg"
   inkscape:export-filename="D:\Users\Ulrik\CloudStation\version-control\sr-webdev-public-transport-app\rc5\app\src\images\api-rejseplanen-map.png"
   inkscape:export-xdpi="83.730377"
   inkscape:export-ydpi="83.730377"><metadata
     id="metadata4391"><rdf:RDF><cc:Work
         rdf:about=""><dc:format>image/svg+xml</dc:format><dc:type
           rdf:resource="http://purl.org/dc/dcmitype/StillImage" /><dc:title></dc:title></cc:Work></rdf:RDF></metadata><defs
     id="defs4389" /><sodipodi:namedview
     pagecolor="#ffffff"
     bordercolor="#666666"
     borderopacity="1"
     objecttolerance="10"
     gridtolerance="10"
     guidetolerance="10"
     inkscape:pageopacity="0"
     inkscape:pageshadow="2"
     inkscape:window-width="2048"
     inkscape:window-height="1089"
     id="namedview4387"
     showgrid="false"
     inkscape:zoom="1"
     inkscape:cx="462.70509"
     inkscape:cy="424.71596"
     inkscape:window-x="1144"
     inkscape:window-y="442"
     inkscape:window-maximized="1"
     inkscape:current-layer="layer39"
     showguides="false"
     inkscape:guide-bbox="true"><sodipodi:guide
       position="279.66073,592.90904"
       orientation="1,0"
       id="guide14167" /><sodipodi:guide
       position="284.08015,578.0598"
       orientation="1,0"
       id="guide14169" /><sodipodi:guide
       position="396.68691,836.94927"
       orientation="1,0"
       id="guide14171" /><sodipodi:guide
       position="407.64706,840.83835"
       orientation="0,1"
       id="guide14173" /><sodipodi:guide
       position="379.80473,803.62686"
       orientation="0,1"
       id="guide14175" /><sodipodi:guide
       position="361.33157,820.06709"
       orientation="1,0"
       id="guide14177" /><sodipodi:guide
       position="350.28302,753.95261"
       orientation="0,1"
       id="guide14179" /><sodipodi:guide
       position="359.5638,749.09125"
       orientation="0,1"
       id="guide14181" /><sodipodi:guide
       position="284.75,745.99766"
       orientation="1,0"
       id="guide14183"
       inkscape:label=""
       inkscape:color="rgb(0,0,255)" /><sodipodi:guide
       position="289.56023,741.1363"
       orientation="1,0"
       id="guide14185" /><sodipodi:guide
       position="311.7457,666.09459"
       orientation="0,1"
       id="guide14187" /><sodipodi:guide
       position="294.3332,459.7078"
       orientation="0,1"
       id="guide14189" /><sodipodi:guide
       position="313.33669,425.05957"
       orientation="0,1"
       id="guide14191" /><sodipodi:guide
       position="222.65025,335.52217"
       orientation="1,0"
       id="guide14193" /><sodipodi:guide
       position="202.14415,512.21048"
       orientation="0,1"
       id="guide14195" /><sodipodi:guide
       position="99.613668,507.17234"
       orientation="0,1"
       id="guide14197" /><sodipodi:guide
       position="95.724581,507.17234"
       orientation="1,0"
       id="guide14199" /><sodipodi:guide
       position="91.039998,500.71999"
       orientation="1,0"
       id="guide14201" /><sodipodi:guide
       position="86.001863,496.74252"
       orientation="1,0"
       id="guide14203" /><sodipodi:guide
       position="80.963727,499.57094"
       orientation="1,0"
       id="guide14205" /><sodipodi:guide
       position="104.91697,483.30749"
       orientation="0,1"
       id="guide14207" /><sodipodi:guide
       position="104.29825,462.88978"
       orientation="0,1"
       id="guide14209" /><sodipodi:guide
       position="60.104077,499.21739"
       orientation="1,0"
       id="guide14211" /><sodipodi:guide
       position="65.142212,481.98166"
       orientation="1,0"
       id="guide14213" /><sodipodi:guide
       position="128.60505,422.05436"
       orientation="0,1"
       id="guide14215" /><sodipodi:guide
       position="221.32442,336.49444"
       orientation="0,1"
       id="guide14217" /><sodipodi:guide
       position="229.19099,333.22407"
       orientation="0,1"
       id="guide14219" /><sodipodi:guide
       position="229.36776,329.2466"
       orientation="0,1"
       id="guide14221" /><sodipodi:guide
       position="226.53934,342.06291"
       orientation="1,0"
       id="guide14223" /><sodipodi:guide
       position="225.56706,326.06462"
       orientation="0,1"
       id="guide14225" /><sodipodi:guide
       position="205.5913,285.40598"
       orientation="0,1"
       id="guide14227" /><sodipodi:guide
       position="200.11122,280.27945"
       orientation="0,1"
       id="guide14229" /><sodipodi:guide
       position="198.69701,275.41809"
       orientation="0,1"
       id="guide14231" /><sodipodi:guide
       position="187.29491,270.64512"
       orientation="1,0"
       id="guide14233" /><sodipodi:guide
       position="192.15627,272.76644"
       orientation="1,0"
       id="guide14235" /><sodipodi:guide
       position="197.1944,132.14058"
       orientation="1,0"
       id="guide14237" /><sodipodi:guide
       position="213.01592,134.52707"
       orientation="0,1"
       id="guide14239" /><sodipodi:guide
       position="214.96046,129.66571"
       orientation="0,1"
       id="guide14241" /><sodipodi:guide
       position="204.00031,124.80435"
       orientation="0,1"
       id="guide14243" /><sodipodi:guide
       position="257.56365,126.39534"
       orientation="1,0"
       id="guide14245" /><sodipodi:guide
       position="303.875,247.3125"
       orientation="1,0"
       id="guide14247" /><sodipodi:guide
       position="332.625,255.1875"
       orientation="0,1"
       id="guide14249" /><sodipodi:guide
       position="327.6875,250.3125"
       orientation="0,1"
       id="guide14251" /><sodipodi:guide
       position="327.9375,245.25"
       orientation="0,1"
       id="guide14253" /><sodipodi:guide
       position="365,234.875"
       orientation="1,0"
       id="guide14255" /><sodipodi:guide
       position="519.625,316.5625"
       orientation="0,1"
       id="guide14257" /><sodipodi:guide
       position="502.8125,255.1875"
       orientation="1,0"
       id="guide14259" /><sodipodi:guide
       position="524,246.8125"
       orientation="1,0"
       id="guide14261" /><sodipodi:guide
       position="551,198.75"
       orientation="0,1"
       id="guide14263" /><sodipodi:guide
       position="551,198.75"
       orientation="1,0"
       id="guide14265" /><sodipodi:guide
       position="576.875,164.9375"
       orientation="1,0"
       id="guide14267" /><sodipodi:guide
       position="576.875,172"
       orientation="0,1"
       id="guide14269" /><sodipodi:guide
       position="566.875,102"
       orientation="0,1"
       id="guide14271" /><sodipodi:guide
       position="515.0625,98.125"
       orientation="1,0"
       id="guide14273" /><sodipodi:guide
       position="487.8125,79.6875"
       orientation="1,0"
       id="guide14275" /><sodipodi:guide
       position="487.8125,75.375"
       orientation="0,1"
       id="guide14277" /><sodipodi:guide
       position="605.10663,311.56893"
       orientation="0,1"
       id="guide14279" /><sodipodi:guide
       position="605.46018,306.79596"
       orientation="0,1"
       id="guide14281" /><sodipodi:guide
       position="621.19331,266.93281"
       orientation="0,1"
       id="guide14283" /><sodipodi:guide
       position="607.22795,252.96745"
       orientation="0,1"
       id="guide14285" /><sodipodi:guide
       position="603.16209,263.39728"
       orientation="1,0"
       id="guide14287" /><sodipodi:guide
       position="607.93506,262.15984"
       orientation="1,0"
       id="guide14289" /><sodipodi:guide
       position="625.0824,323.9433"
       orientation="1,0"
       id="guide14291" /><sodipodi:guide
       position="642.58329,321.82197"
       orientation="1,0"
       id="guide14293" /><sodipodi:guide
       position="647.44465,316.5625"
       orientation="1,0"
       id="guide14295" /><sodipodi:guide
       position="652.57117,309.00566"
       orientation="1,0"
       id="guide14297" /><sodipodi:guide
       position="657.25576,315.19285"
       orientation="1,0"
       id="guide14299" /><sodipodi:guide
       position="646.20721,339.14609"
       orientation="0,1"
       id="guide14301" /><sodipodi:guide
       position="644.43944,348.69203"
       orientation="0,1"
       id="guide14303" /><sodipodi:guide
       position="645.05816,353.37662"
       orientation="0,1"
       id="guide14305" /><sodipodi:guide
       position="613.41513,377.50663"
       orientation="0,1"
       id="guide14307" /><sodipodi:guide
       position="589.72706,369.64007"
       orientation="0,1"
       id="guide14309" /><sodipodi:guide
       position="583.62826,369.64007"
       orientation="1,0"
       id="guide14311" /><sodipodi:guide
       position="676.6128,293.27254"
       orientation="0,1"
       id="guide14313" /><sodipodi:guide
       position="677.76185,288.32279"
       orientation="0,1"
       id="guide14315" /><sodipodi:guide
       position="670.86756,283.63821"
       orientation="0,1"
       id="guide14317" /><sodipodi:guide
       position="674.4031,302.37654"
       orientation="1,0"
       id="guide9175" /><sodipodi:guide
       position="68.589358,281.16334"
       orientation="1,0"
       id="guide9177" /><sodipodi:guide
       position="103,518"
       orientation="0,1"
       id="guide9187" /><sodipodi:guide
       position="144.42656,652.12923"
       orientation="0,1"
       id="guide9193" /><sodipodi:guide
       position="139.47681,639.75486"
       orientation="1,0"
       id="guide9195" /><sodipodi:guide
       position="106.24279,603.16209"
       orientation="0,1"
       id="guide9197" /><sodipodi:guide
       position="697.03051,298.75262"
       orientation="1,0"
       id="guide9201" /><sodipodi:guide
       position="425.5,496.75"
       orientation="0,1"
       id="guide9248" /></sodipodi:namedview><g
     inkscape:groupmode="layer"
     id="layer39"
     inkscape:label="Map"
     style="display:inline"><path
       style="fill:#757575"
       d="m 578.55608,836.07761 -6.43905,-6.59786 0,-9.31023 0,-9.31022 -8.6683,8.56965 -8.6683,8.56966 -32.65907,-0.1956 -32.65907,-0.19553 -12.68004,-12.61502 c -6.97403,-6.93825 -13.00765,-13.20532 -13.40803,-13.92683 -0.61484,-1.10795 -0.0387,-2.00726 3.70697,-5.78658 l 4.43494,-4.47467 -8.21918,-8.24069 c -4.52055,-4.53237 -8.21918,-8.55866 -8.21918,-8.94741 0,-0.93043 10.4239,-11.15749 12.39372,-12.15968 0.95691,-0.4868 6.32706,-0.77876 14.32406,-0.77876 l 12.79324,0 12.68211,12.61501 12.68211,12.615 6.79303,0 6.79302,0 15.92562,-16.15365 15.92563,-16.15366 16.67039,0.20968 16.67038,0.20969 9.11966,9.10076 c 5.01581,5.00535 9.11966,9.5811 9.11966,10.16818 0,0.58709 -6.78057,7.84254 -15.06793,16.12318 l -15.06792,15.05573 0,19.10383 c 0,15.29962 -0.18315,19.10381 -0.91972,19.10381 -0.50584,0 -3.81728,-2.96901 -7.35875,-6.59779 z M 51.00776,831.96287 c -0.190135,-0.49548 -0.259076,-18.55702 -0.153213,-40.13682 l 0.192482,-39.23598 2.452916,-2.95184 c 2.172275,-2.61409 2.793699,-2.95325 5.431465,-2.96444 l 2.978542,-0.0126 0,16.74826 0,16.74818 7.358756,7.58512 c 4.047313,4.17179 7.358756,7.9628 7.358756,8.42445 0,2.90396 -0.521607,3.05654 -10.447326,3.05654 -6.529521,0 -9.865309,0.26877 -10.437522,0.84101 -0.604935,0.60496 -0.841006,5.32633 -0.841006,16.82 l 0,15.97902 -1.774079,0 c -0.975744,0 -1.929645,-0.40536 -2.119771,-0.90086 z m 295.93462,-45.21065 c -9.93747,-9.94301 -17.84586,-18.30045 -17.5742,-18.57209 0.27167,-0.27165 2.31979,-0.49395 4.5514,-0.49395 l 4.05746,0 9.06678,9.11084 9.06679,9.11083 12.66513,0 c 12.10327,0 12.69971,0.0645 13.44397,1.45522 0.69811,1.30446 -0.0397,2.28486 -7.12013,9.46126 -4.34441,4.40333 -8.3917,8.00604 -8.99399,8.00604 -0.6023,0 -9.22574,-8.13513 -19.16321,-18.07815 z m 66.24804,10.18179 -7.17102,-7.19547 0,-16.35059 0,-16.35059 4.55542,-4.71858 4.55542,-4.71858 0,-18.54234 0,-18.54234 3.35304,-3.30261 c 1.84416,-1.81645 3.73642,-3.30262 4.205,-3.30262 0.66067,0 0.85196,11.08826 0.85196,49.38412 0,48.10741 -0.035,49.4029 -1.35559,50.10963 -0.74558,0.39905 -1.46081,0.7255 -1.5894,0.7255 -0.12859,0 -3.46076,-3.238 -7.40483,-7.19553 z m -146.48481,-13.39806 -6.45965,-6.60732 0,-9.71426 0,-9.71419 -7.75598,-7.69721 c -4.26578,-4.23347 -8.0715,-8.26806 -8.45716,-8.96574 -0.58597,-1.06004 0.30636,-2.29817 5.42986,-7.53397 3.37211,-3.446 6.46102,-6.26545 6.86425,-6.26545 0.40326,0 10.12868,9.38241 21.61209,20.84981 l 20.8789,20.8498 -0.18826,10.51251 -0.18826,10.51251 -12.63806,0.19042 -12.63805,0.19041 -6.45968,-6.60732 z M 86.027793,721.60635 c 0.170439,-65.484 0.153325,-66.43314 -1.235072,-68.50651 -2.102709,-3.14011 -31.437415,-32.58878 -32.462657,-32.58878 -0.645813,0 -0.938996,2.03745 -1.084119,7.53396 -0.300596,11.38487 -0.223288,11.41416 -18.679784,-7.0766 l -14.976683,-15.00448 1.635338,-2.21192 c 0.899441,-1.21657 2.356415,-2.3929 3.23772,-2.61409 0.881314,-0.22119 1.602383,-0.71403 1.602383,-1.09518 0,-0.38114 2.049939,-2.81637 4.555418,-5.41159 l 4.555427,-4.7186 0,-141.33713 c 0,-77.73542 0.193615,-141.33713 0.430259,-141.33713 0.236644,0 2.523113,2.08188 5.081043,4.62641 l 4.650784,4.62639 0.214645,14.22318 c 0.200579,13.29094 0.308625,14.30836 1.648363,15.52258 1.235427,1.11968 3.027095,1.34785 12.954703,1.6498 l 11.520992,0.35042 7.086265,7.18355 c 3.897444,3.95095 7.300364,7.18355 7.562029,7.18355 0.261674,0 0.897727,0.78843 1.413453,1.75208 0.515734,0.96365 1.185643,1.75208 1.488707,1.75208 0.303056,0 2.365311,1.89226 4.582778,4.20502 3.917719,4.08602 4.135136,4.205 7.685093,4.205 3.621962,0 3.701292,-0.0474 9.244702,-5.52418 l 5.59139,-5.52417 0.50663,-10.77022 c 0.27865,-5.92362 0.8169,-11.40096 1.19612,-12.17189 0.37923,-0.77091 8.30158,-9.04951 17.60524,-18.39689 13.75116,-13.81575 17.26957,-16.99521 18.80704,-16.99521 1.04022,0 2.08031,0.30581 2.31131,0.6796 0.23102,0.37377 0.40744,15.19641 0.39206,32.93919 l -0.028,32.25959 5.49559,0 5.49557,0 4.64596,-4.55542 c 2.55528,-2.50548 4.92047,-4.55542 5.25597,-4.55542 0.33551,0 2.57847,2.04994 4.98436,4.55542 l 4.37434,4.55542 10.10385,0 c 8.75978,0 10.10384,-0.14793 10.10384,-1.11212 0,-0.61169 -0.94612,-1.46926 -2.1025,-1.90574 -1.15638,-0.43649 -2.1025,-1.19094 -2.1025,-1.67657 0,-0.48563 -5.23237,-6.17209 -11.62751,-12.63657 -6.39513,-6.46447 -12.54495,-12.78955 -13.66626,-14.0557 l -2.03876,-2.30209 0,-33.03387 0,-33.03387 9.60415,-9.69261 9.60414,-9.69263 25.37777,0 25.37776,0 5.20177,-5.15137 5.20178,-5.15139 23.06658,-0.34951 c 12.68662,-0.19224 24.52428,-0.16059 26.3059,0.0703 2.84252,0.36842 6.92276,2.4879 6.92276,3.59601 0,0.21481 7.33248,7.70315 16.29439,16.64078 l 16.29439,16.25021 0.19151,35.22981 0.19149,35.22981 8.20756,8.23479 8.20755,8.23479 26.4218,0 c 16.73571,0 27.14507,0.26981 28.39472,0.73598 1.08511,0.40478 5.67858,4.42089 10.20772,8.92468 l 8.2348,8.18871 0,22.04911 0,22.04911 -14.54231,14.63349 c -7.99826,8.04841 -15.39391,15.08265 -16.43479,15.63165 -1.51558,0.79939 -6.07564,0.99819 -22.89653,0.99819 l -21.00402,0 -0.41727,-4.38022 c -0.2295,-2.40911 -0.49113,-6.24034 -0.5814,-8.51385 -0.13994,-3.52384 -0.43006,-4.33154 -1.96671,-5.47516 -0.9914,-0.73784 -2.25289,-1.40958 -2.80333,-1.49274 -0.55042,-0.0832 -1.39775,-0.39919 -1.88292,-0.70226 -0.59281,-0.37032 -5.12563,3.64205 -13.82055,12.23373 l -12.9384,12.78476 -0.0238,36.14352 c -0.0218,33.07817 -0.12408,36.21783 -1.20613,37.01957 -0.77155,0.57169 -3.76948,0.87604 -8.62922,0.87604 l -7.44691,0 -4.68374,4.66079 -4.68373,4.66076 0,14.10715 0,14.10715 -15.76876,15.71199 c -8.6728,8.64158 -15.76874,15.96479 -15.76874,16.27378 0,0.30897 -0.31537,0.56177 -0.70083,0.56177 -0.38546,0 -0.70083,0.39822 -0.70083,0.88491 0,0.48671 -0.84237,1.51168 -1.87192,2.27771 -1.02956,0.76605 -4.36151,3.83697 -7.40434,6.82427 -3.04282,2.9873 -5.82728,5.43146 -6.18767,5.43146 -0.36039,0 -0.65525,0.42093 -0.65525,0.93541 0,0.51447 -0.94613,1.7784 -2.10251,2.80875 l -2.1025,1.87333 0,20.65526 0,20.65525 -14.89272,0.20384 -14.89272,0.20385 15.1067,0.16051 15.1067,0.16051 7.84561,7.95198 c 7.57813,7.68087 7.84562,8.05616 7.84562,11.00769 l 0,3.05573 -18.30494,18.35278 c -10.06771,10.09402 -18.18863,18.69735 -18.04647,19.11851 0.33396,0.98941 31.55216,32.32255 32.20399,32.32255 1.07844,0 1.34408,2.68462 1.34408,13.58342 0,7.90598 -0.25603,11.62228 -0.841,12.20727 -0.64486,0.64483 -20.65385,0.841 -85.79384,0.841 l -84.952824,0 0.172838,-66.40401 z M 40.904205,508.57092 c 3.539304,-2.46812 6.997784,-5.6939 12.03282,-11.22316 1.424963,-1.56484 3.001839,-2.98175 3.504175,-3.14873 0.701582,-0.2332 0.963092,-3.64443 1.127961,-14.71354 0.22665,-15.21695 -0.157421,-18.52874 -2.291337,-19.7581 -2.53781,-1.46205 -4.217587,-2.91321 -10.787104,-9.31903 -3.642664,-3.55189 -6.890268,-6.29281 -7.216908,-6.09094 -0.668358,0.41308 -0.831235,62.6262 -0.168481,64.3533 0.549192,1.43118 1.644718,1.4024 3.798874,-0.0998 z M 373.78103,768.38701 c -2.31274,-2.31276 -4.205,-4.60581 -4.205,-5.09563 0,-0.48988 2.80205,-3.67972 6.22677,-7.08857 l 6.22678,-6.19797 3.9358,-0.0949 3.93578,-0.0949 -4.8e-4,6.36429 -4.7e-4,6.36427 -5.18156,5.02427 c -2.84985,2.76338 -5.53054,5.02428 -5.95709,5.02428 -0.42654,0 -2.66777,-1.89226 -4.98053,-4.205 z m 239.14705,-5.79387 c -3.94406,-3.95753 -7.17102,-7.52366 -7.17102,-7.92475 0,-0.40108 3.39029,-4.06857 7.53397,-8.15 l 7.53396,-7.42077 4.74641,-0.50658 c 2.61053,-0.27861 10.7445,-0.371 18.07547,-0.20529 l 13.32907,0.30126 6.62892,6.60136 c 6.59934,6.57191 7.99219,9.10971 5.52035,10.05822 -0.60972,0.23401 -8.3866,0.42541 -17.28197,0.42541 l -16.17339,0 -7.20337,7.00834 c -3.96184,3.85458 -7.46526,7.00833 -7.78537,7.00833 -0.3201,0 -3.80896,-3.23798 -7.75303,-7.19553 z m -303.27234,-15.93098 -4.16013,-4.20399 3.81609,-3.86406 3.81608,-3.86408 -12.74957,-12.78174 -12.74957,-12.78175 -0.20029,-18.408 -0.2003,-18.40801 -11.03523,-11.02701 c -6.06937,-6.06487 -11.21918,-11.23594 -11.44399,-11.4913 -0.52224,-0.59313 -0.38997,-24.62351 0.15433,-28.03898 0.2964,-1.85988 0.82824,-2.67738 1.92011,-2.95142 0.83059,-0.20847 2.2003,-1.02198 3.04379,-1.80781 0.84349,-0.78584 1.91475,-1.42879 2.38057,-1.42879 0.46582,0 0.63917,-0.20777 0.38523,-0.46172 -0.25395,-0.25394 2.43745,-3.4077 5.9809,-7.00835 l 6.44262,-6.54661 10.21129,0 10.2113,0 6.27826,-6.30751 6.27829,-6.3075 15.11382,0 15.11382,0 9.9556,10.04119 9.9556,10.0412 0,14.16224 c 0,13.94505 0.0215,14.15072 1.40167,13.41207 0.77092,-0.41258 1.4023,-1.13327 1.40307,-1.60153 7e-4,-0.46826 2.99066,-3.84745 6.64422,-7.50931 l 6.64281,-6.65792 0.0138,-11.06013 c 0.0117,-9.47244 0.17429,-11.12175 1.13231,-11.48938 0.79752,-0.30604 4.8337,3.27095 14.06154,12.4618 7.11862,7.09007 13.26952,13.48091 13.66871,14.20186 0.60946,1.10073 0.0969,1.94637 -3.19861,5.27657 l -3.92439,3.96577 0,39.28658 0,39.28656 -2.45547,3.15171 c -1.35051,1.73343 -3.24277,3.57305 -4.205,4.08803 -0.96225,0.51497 -1.74954,1.35342 -1.74954,1.86321 0,0.50978 -0.63075,1.32079 -1.40167,1.80223 -0.77092,0.48145 -1.40167,1.27256 -1.40167,1.75803 0,0.48546 -0.35805,0.88266 -0.79568,0.88266 -0.83293,0 -4.09895,3.21886 -4.12548,4.06591 -0.009,0.26923 -1.46609,1.75102 -3.23926,3.29285 -1.77315,1.54183 -3.73734,3.42077 -4.36488,4.17542 -0.62752,0.75464 -2.03884,2.17383 -3.13627,3.15375 -1.09742,0.97992 -3.86662,3.59508 -6.15377,5.81147 l -4.15845,4.02979 -27.5082,0 -27.5082,0 -4.16012,-4.204 z M 564.4443,731.05523 c -8.30741,-8.1978 -18.2928,-17.97443 -22.18975,-21.72585 l -7.08538,-6.82076 -23.05595,0 -23.05596,0 -16.44636,-16.16688 c -9.0455,-8.89179 -17.00419,-17.0127 -17.68597,-18.04648 -1.13757,-1.7249 -1.23997,-4.3883 -1.24421,-32.3609 l -0.005,-30.48132 -17.96184,-17.9718 c -10.54669,-10.55256 -17.76271,-18.294 -17.47948,-18.75226 0.33303,-0.53886 5.7705,-0.78047 17.56442,-0.78047 l 17.08206,0 6.66132,-6.83313 c 3.66375,-3.75822 14.40878,-14.55278 23.87784,-23.98791 l 17.21651,-17.15477 -6.47135,-6.49837 -6.47136,-6.49837 -11.0479,0 -11.0479,0 -3.15782,-3.11312 c -1.73681,-1.71221 -3.15782,-3.28909 -3.15782,-3.50418 0,-0.21507 18.92251,-0.39104 42.05003,-0.39104 l 42.05003,0 0,5.44399 0,5.44397 -7.35875,7.33373 -7.35876,7.33371 0,12.4984 c 0,7.92798 -0.28985,13.05817 -0.79266,14.02919 -0.89887,1.73593 -17.89949,18.70124 -18.74016,18.70124 -0.30087,0 -1.28772,0.78844 -2.19303,1.75208 l -1.646,1.75209 17.12713,0 17.12712,0 9.27631,-9.29546 9.27632,-9.29543 0,-24.74639 c 0,-20.15952 0.17167,-24.70439 0.92624,-24.51979 0.50944,0.12462 3.82088,3.26249 7.35875,6.97305 l 6.43252,6.74645 0.0233,26.19274 c 0.0226,25.41113 0.0664,26.2446 1.46884,27.93022 1.40608,1.69005 1.47239,1.70074 2.42961,0.39168 0.54124,-0.7402 0.98407,-1.63135 0.98407,-1.98036 0,-0.349 1.2615,-2.06769 2.80334,-3.8193 l 2.80334,-3.18476 0,-27.77828 0,-27.77827 -4.74823,-4.71183 -4.7482,-4.71184 -5.96346,0 -5.96342,0 -3.65545,-3.70141 c -2.01051,-2.03578 -3.65546,-4.17328 -3.65546,-4.75 0,-0.57673 7.50523,-8.53003 16.67831,-17.67403 l 16.6783,-16.62542 29.7184,0 29.71838,0 7.91794,7.91792 7.91792,7.91794 0,56.12256 c 0,51.34997 0.0986,56.20435 1.15898,57.08442 0.63743,0.52901 1.27353,0.87827 1.41357,0.77613 0.14003,-0.10214 2.53572,2.39963 5.32375,5.55948 l 5.06914,5.74519 0,6.52737 c 0,3.59005 -0.23654,6.52851 -0.52562,6.52991 -0.2891,0.002 -0.52564,0.65347 -0.52564,1.44906 0,1.22796 -7.51776,9.38672 -12.15455,13.19089 -1.0578,0.86787 -2.03978,0.12653 -9.23208,-6.96957 l -8.04838,-7.94073 0,-4.23232 0,-4.23233 7.53395,-7.61957 7.53397,-7.61956 -3.29246,0.46204 c -3.20854,0.45027 -3.83687,1.0072 -24.65348,21.85175 l -21.36102,21.38972 0.16422,7.83264 c 0.18183,8.67335 1.02677,11.21703 4.56219,13.73446 1.8655,1.32835 3.02869,1.45693 13.1805,1.45693 l 11.13444,0 3.00123,3.05803 3.00123,3.05802 -0.22719,10.57649 -0.22718,10.57647 -2.75183,2.81612 -2.75183,2.81612 -9.51275,0.19418 c -8.99568,0.18362 -9.524,0.27261 -9.71917,1.63708 -0.11351,0.79358 -4.29223,5.51966 -9.28604,10.5024 l -9.07966,9.05948 0,17.56601 c 0,12.728 -0.23162,17.79762 -0.841,18.407 -0.58175,0.58176 -4.18912,0.84101 -11.70253,0.84101 l -10.86153,0 -15.10436,-14.9051 z M 70.774625,717.2933 l -6.061343,-6.19418 0,-12.35483 0,-12.35485 6.657928,0 6.657919,0 0,18.18032 c 0,9.99918 -0.268463,18.34625 -0.596584,18.54903 -0.328121,0.20279 -3.324184,-2.41868 -6.65792,-5.82549 z m -13.261327,-54.57251 -5.415019,-5.44696 0,-7.40166 c 0,-4.0709 0.219868,-7.62153 0.4886,-7.89026 0.268742,-0.26873 2.949433,1.95777 5.957091,4.94779 l 5.468484,5.43642 0,7.90082 c 0,4.34545 -0.243928,7.90082 -0.542073,7.90082 -0.298137,0 -2.978819,-2.45114 -5.957083,-5.44697 z M 359.23874,542.25434 c -1.30859,-0.52802 -1.27548,-53.50006 0.0334,-53.50006 0.5002,0 5.07314,4.20488 10.16207,9.34416 l 9.25262,9.34417 0,17.21254 c 0,15.04907 -0.13933,17.26602 -1.10856,17.63794 -1.31577,0.5049 -17.07478,0.4716 -18.33957,-0.0388 z M 73.809108,331.54715 c -3.268138,-3.20484 -7.374,-7.38356 -9.12413,-9.28604 -1.750131,-1.90248 -4.825042,-4.91762 -6.833131,-6.70031 -2.008089,-1.7827 -3.651065,-3.59611 -3.651065,-4.0298 0,-0.43369 -0.275012,-0.78854 -0.611127,-0.78854 -0.336115,0 -2.297001,-1.73456 -4.357532,-3.85458 l -3.746414,-3.85459 -5.45414,0 -5.45414,0 0,-12.07611 0,-12.07613 38.53971,-38.55913 38.539711,-38.55912 39.42805,-0.35043 39.42807,-0.35041 3.15376,-1.88081 c 1.77025,-1.05572 24.30565,-23.03804 51.37043,-50.10962 26.51916,-26.52585 48.65602,-48.61843 49.19301,-49.0946 0.53697,-0.47618 1.28736,-1.4223 1.66751,-2.1025 0.62788,-1.12348 2.52571,-1.26881 20.724,-1.58715 l 20.03283,-0.35041 21.19139,-21.255421 c 11.65526,-11.690478 21.66445,-21.509667 22.24264,-21.820415 0.57819,-0.310748 5.07228,-0.729554 9.98688,-0.930681 l 8.93563,-0.365685 0,2.557491 c 0,2.404957 -1.01364,3.571745 -16.99521,19.56289 l -16.99522,17.005391 -0.35042,50.0946 -0.35042,50.09459 -8.58521,8.60545 -8.58521,8.60546 0,29.81036 c 0,30.07567 -0.11105,31.49237 -2.46839,31.49237 -0.43253,0 -8.38294,-7.56901 -17.66761,-16.82002 l -16.88119,-16.82001 -42.67214,0 -42.67214,0 -2.77036,2.86109 c -4.94664,5.10866 -2.69554,4.84808 -41.88219,4.84808 l -35.32683,0 -18.84739,18.97117 c -22.19998,22.34579 -23.0489,23.19511 -26.089758,26.10173 -4.794236,4.5826 -5.022219,5.64087 -5.022219,23.31293 l 0,15.87913 -2.681842,2.54569 c -5.131866,4.8713 -8.405919,7.10109 -10.426678,7.10109 -1.549396,0 -3.303761,-1.28885 -7.931515,-5.827 z m 26.231822,-7.05368 c -0.203978,-0.53159 -0.272928,-7.15313 -0.153208,-14.71455 l 0.217678,-13.74803 19.96915,-19.97674 c 10.98304,-10.9872 20.20777,-19.97673 20.49939,-19.97673 0.29163,0 0.52816,10.64391 0.52562,23.65314 -0.004,21.32101 -0.12509,23.83358 -1.22646,25.48311 -0.67201,1.00648 -5.40525,5.97364 -10.51829,11.03813 l -9.29646,9.20818 -9.82326,0 c -7.70251,0 -9.90334,-0.20866 -10.19416,-0.96651 z m 420.52127,-6.83731 c -2.4627,-2.3648 -4.30904,-4.57243 -4.10297,-4.90583 0.48307,-0.78162 18.5136,-0.79763 18.5136,-0.0165 0,0.68503 -8.75845,9.22193 -9.46126,9.22193 -0.25945,0 -2.48666,-1.93484 -4.94937,-4.29965 z M 412.83938,175.6442 c -3.751,-3.76513 -6.81998,-7.16198 -6.81998,-7.54859 0,-0.3866 2.76576,-3.45586 6.14615,-6.82058 l 6.14617,-6.11769 19.78469,0 c 10.88158,0 19.78469,0.26538 19.78469,0.58975 0,0.32436 -2.02264,2.53197 -4.49476,4.90583 l -4.49476,4.3161 -5.03577,0 -5.03577,0 -8.77314,8.76041 c -4.82524,4.81824 -9.13639,8.76043 -9.58034,8.76043 -0.44396,0 -3.87619,-3.08055 -7.62718,-6.84566 z"
       id="path9169"
       inkscape:connector-curvature="0" /></g><g
     inkscape:groupmode="layer"
     id="layer43"
     inkscape:label="Lines"
     style="display:inline"
     sodipodi:insensitive="true"><path
       id="path9250"
       style="fill:none;fill-rule:evenodd;stroke:#4caf50;stroke-width:3;stroke-linecap:butt;stroke-linejoin:miter;stroke-miterlimit:4;stroke-dasharray:none;stroke-opacity:1"
       d="m 431.75,401.39954 -49.5,0 -64.5,66 m -95.09975,108.5 95.28725,-97.375 -0.125,-11.125 -28.25227,-28.9578 0,-289.38345 71.77134,0 m -292.742212,463.68527 182.910642,0 4.06365,-4.41681 m 2,165.01844 -70.26874,0 m 0,13.55435 0,-174.15598 M 365,749.89954 l 0,-97 m 211.875,180.54973 0,-37.29973 m -89.0625,26.625 27.25,-26.625 61.8125,0 0,-70 -25.875,-26.75 m -114.53834,-117.8125 123.74369,0 11.84404,9.76654 0,8.57367 31.1127,31.28948 0,13.96536 L 551,699.39954 524,672.93603 524,632.9845 m 133.25576,-156.88932 0,115.2584 M 80.963727,380.14954 l 0,55.11022 219.379883,217.63978 202.46889,0 64.99425,-61.54596 89.44901,0 0,13.52342 39.77475,0"
       inkscape:connector-curvature="0"
       sodipodi:nodetypes="cccccccccccccccccccccccccccccccccccccccccccc" /><path
       id="path9215"
       style="fill:none;fill-rule:evenodd;stroke:#ff5722;stroke-width:2;stroke-linecap:butt;stroke-linejoin:miter;stroke-miterlimit:4;stroke-dasharray:none;stroke-opacity:1"
       d="m 610.58671,576.7695 21.03642,0 m 4.06587,21.38998 -10.6066,-11.57887 0,-17.67767 9.01561,-9.89949 8.48528,0 m -58.95503,-30.49398 47.99487,48.61359 10.96016,0 m -22.09709,-32.35014 22.09709,24.13002 m -34.64823,-48.26003 34.64823,34.20628 m -34.64823,90.3329 0,-13.96536 34.64823,-34.64824 0,-47.11098"
       inkscape:connector-curvature="0" /><path
       id="path9226"
       style="fill:none;fill-rule:evenodd;stroke:#f44336;stroke-width:3;stroke-linecap:butt;stroke-linejoin:miter;stroke-miterlimit:4;stroke-dasharray:none;stroke-opacity:1"
       d="m 197.1944,622.73145 0,140.89102 60.36925,0 M 67.705475,622.73145 l 209.696375,0 m 2.07138,-179.97721 29.33927,31.08573 -86.16225,87.81513 0,5.21491 m 57.01048,-334.12756 -0.125,210.13679 -56.88548,-56.94018 -131.610252,0 m 605.990512,223.88769 -44.45934,0 0,-23.24614 m -513.09436,-340.5603 -48.436812,48.96714 0,140.27231 L 302,647.83704 l 199.0625,0.25 64.7997,-61.50643 86.70897,0 0,-21.65514 m -395.00752,37.541 0,8.33255 -9.31365,11.93243"
       inkscape:connector-curvature="0"
       sodipodi:nodetypes="ccccccccccccccccccccccccccc" /><path
       id="path9191"
       style="fill:none;fill-rule:evenodd;stroke:#ffc107;stroke-width:3;stroke-linecap:butt;stroke-linejoin:miter;stroke-miterlimit:4;stroke-dasharray:none;stroke-opacity:1"
       d="m 226.53934,564.92547 87.21066,-88.83029 0,-4.38314 -29.125,-30.4578 0.125,-297.05731 76.58157,0 m -262.425008,235.95261 0,55.11022 180.754168,182.61033 m -22.09708,150.61374 -65.40738,0 0,-150.61374 m -123.566912,0 211.071372,0 24.21427,25.09195 195.9375,0 63.4375,-61.375 84.19465,0 0,32.92429 26.95845,0"
       inkscape:connector-curvature="0"
       sodipodi:nodetypes="cccccccccccccccccccc" /><path
       id="path9246"
       style="fill:none;fill-rule:evenodd;stroke:#03a9f4;stroke-width:2;stroke-linecap:butt;stroke-linejoin:miter;stroke-miterlimit:4;stroke-dasharray:none;stroke-opacity:1"
       d="m 40.25,539.64954 0,18.75 19.25,0 m 563.81463,-37.84503 0,10.07628 4.94975,4.06586 m -266.93281,-394.56558 0,-46.669051 35.35533,-35.355339 m -97.93429,81.31728 0,-35.00179 m -212.839136,285.67114 135.764506,0 81.34577,83.72077 -31.49475,32.24475 -30.05203,-30.05204 -177.83736,0 m -23.688077,-156.97771 0,31.1127 20.506097,20.5061 0,48.79037 m 51.97235,354.9676 0,-146.72466 -48.436816,0 0,-212.48559 21.566757,0 0,-122.32947 50.911689,-50.91169 m -19.44544,546.59355 0,-13.78859 -0.7071,-0.35355 m 457.85164,16.97056 -101.82338,0 m 149.55308,-103.94469 0,-22.27387 m 18.73833,19.44544 -32.88046,-32.88047 0.10572,-4.88334 m -28.38999,-176.8431 25.63262,25.63262 m -49.67425,-1.23744 32.88046,0 23.68808,23.68808 43.84062,-43.84062 -10.25305,-10.96015 -40.30509,0 0,47.7297 m -100.76271,66.46804 -24.74874,-24.74874 43.48707,-43.13351 14.14213,0 m -61.16473,128.33988 0,-44.54773 54.80077,0 0,-7.42462"
       inkscape:connector-curvature="0"
       sodipodi:nodetypes="ccccccccccccccccccccccccccccccccccccccccccccccccccccccc" /></g></svg>