<?xml version="1.0" encoding="UTF-8" standalone="no"?>
<!-- Created with Inkscape (http://www.inkscape.org/) -->

<svg
   xmlns:dc="http://purl.org/dc/elements/1.1/"
   xmlns:cc="http://creativecommons.org/ns#"
   xmlns:rdf="http://www.w3.org/1999/02/22-rdf-syntax-ns#"
   xmlns:svg="http://www.w3.org/2000/svg"
   xmlns="http://www.w3.org/2000/svg"
   xmlns:sodipodi="http://sodipodi.sourceforge.net/DTD/sodipodi-0.dtd"
   xmlns:inkscape="http://www.inkscape.org/namespaces/inkscape"
   width="210mm"
   height="297mm"
   viewBox="0 0 744.09448819 1052.3622047"
   id="svg2"
   version="1.1"
   inkscape:version="0.91 r13725"
   sodipodi:docname="icons.svg">
  <defs
     id="defs4" />
  <sodipodi:namedview
     id="base"
     pagecolor="#ffffff"
     bordercolor="#666666"
     borderopacity="1.0"
     inkscape:pageopacity="0.0"
     inkscape:pageshadow="2"
     inkscape:zoom="1.4"
     inkscape:cx="338.993"
     inkscape:cy="204.35821"
     inkscape:document-units="px"
     inkscape:current-layer="layer1"
     showgrid="false"
     inkscape:window-width="2048"
     inkscape:window-height="1089"
     inkscape:window-x="2040"
     inkscape:window-y="-8"
     inkscape:window-maximized="1"
     showguides="true"
     inkscape:guide-bbox="true">
    <inkscape:grid
       type="xygrid"
       id="grid4147" />
    <sodipodi:guide
       position="380,880.00002"
       orientation="1,0"
       id="guide4283" />
    <sodipodi:guide
       position="60,660.00001"
       orientation="1,0"
       id="guide4285" />
    <sodipodi:guide
       position="200,500.00001"
       orientation="1,0"
       id="guide4287" />
    <sodipodi:guide
       position="220,840.00002"
       orientation="1,0"
       id="guide4291" />
    <sodipodi:guide
       position="360,1020"
       orientation="1,0"
       id="guide4293" />
    <sodipodi:guide
       position="520,720.00002"
       orientation="1,0"
       id="guide4295" />
    <sodipodi:guide
       position="540,880.00002"
       orientation="1,0"
       id="guide4297" />
    <sodipodi:guide
       position="680.00001,740.00002"
       orientation="1,0"
       id="guide4299" />
    <sodipodi:guide
       position="700.00001,1000"
       orientation="0,1"
       id="guide4301" />
    <sodipodi:guide
       position="840.00001,860.00002"
       orientation="0,1"
       id="guide4303" />
    <sodipodi:guide
       position="860.00001,840.00002"
       orientation="0,1"
       id="guide4305" />
    <sodipodi:guide
       position="960.00001,700.00001"
       orientation="0,1"
       id="guide4307" />
    <sodipodi:guide
       position="920.00001,680.00001"
       orientation="0,1"
       id="guide4309" />
    <sodipodi:guide
       position="940.00001,540.00001"
       orientation="0,1"
       id="guide4311" />
    <sodipodi:guide
       position="920.00001,520.00001"
       orientation="0,1"
       id="guide4313" />
    <sodipodi:guide
       position="860.00001,380.00001"
       orientation="0,1"
       id="guide4315" />
    <sodipodi:guide
       position="840.00001,360.00001"
       orientation="0,1"
       id="guide4317" />
    <sodipodi:guide
       position="820.00001,220"
       orientation="0,1"
       id="guide4319" />
    <sodipodi:guide
       position="740.00001,200"
       orientation="0,1"
       id="guide4321" />
    <sodipodi:guide
       position="840.00001,60.000001"
       orientation="0,1"
       id="guide4323" />
  </sodipodi:namedview>
  <metadata
     id="metadata7">
    <rdf:RDF>
      <cc:Work
         rdf:about="">
        <dc:format>image/svg+xml</dc:format>
        <dc:type
           rdf:resource="http://purl.org/dc/dcmitype/StillImage" />
        <dc:title />
      </cc:Work>
    </rdf:RDF>
  </metadata>
  <g
     inkscape:label="Layer 1"
     inkscape:groupmode="layer"
     id="layer1"
     style="opacity:1">
    <g
       id="g4583"
       inkscape:export-filename="D:\Users\Ulrik\CloudStation\version-control\sr-webdev-public-transport-app\rc5\app\src\images\api-rejseplanen-route-icl.png"
       inkscape:export-xdpi="30.857143"
       inkscape:export-ydpi="30.857143"
       transform="translate(0,-159.359)">
      <rect
         rx="24"
         y="532.68976"
         x="379.71429"
         height="139.99997"
         width="140"
         id="rect4411"
         style="fill:#fec006;fill-opacity:1;fill-rule:evenodd;stroke:none;stroke-width:1px;stroke-linecap:butt;stroke-linejoin:miter;stroke-opacity:1" />
      <flowRoot
         transform="translate(-0.456604,186.47969)"
         style="font-style:normal;font-weight:normal;font-size:40px;line-height:125%;font-family:sans-serif;letter-spacing:0px;word-spacing:0px;fill:#ffffff;fill-opacity:1;stroke:none;stroke-width:1px;stroke-linecap:butt;stroke-linejoin:miter;stroke-opacity:1"
         id="flowRoot4439"
         xml:space="preserve"><flowRegion
           id="flowRegion4441"><rect
             style="fill:#ffffff"
             y="372.36221"
             x="380"
             height="140"
             width="140"
             id="rect4443" /></flowRegion><flowPara
           style="font-style:italic;font-variant:normal;font-weight:bold;font-stretch:normal;font-size:70px;font-family:Arial;-inkscape-font-specification:'Arial Bold Italic';text-align:center;text-anchor:middle;fill:#ffffff"
           id="flowPara4445">ICL</flowPara></flowRoot>    </g>
    <g
       id="g4519"
       inkscape:export-filename="D:\Users\Ulrik\CloudStation\version-control\sr-webdev-public-transport-app\rc5\app\src\images\api-rejseplanen-route-a.png"
       inkscape:export-xdpi="30.857143"
       inkscape:export-ydpi="30.857143">
      <rect
         rx="24"
         y="52.362225"
         x="60"
         height="139.99997"
         width="140"
         id="rect4391"
         style="fill:#02a8f3;fill-rule:evenodd;stroke:none;stroke-width:1px;stroke-linecap:butt;stroke-linejoin:miter;stroke-opacity:1;fill-opacity:1" />
      <flowRoot
         xml:space="preserve"
         id="flowRoot4447"
         style="font-style:normal;font-weight:normal;font-size:120px;line-height:125%;font-family:sans-serif;letter-spacing:0px;word-spacing:0px;fill:#ffffff;fill-opacity:1;stroke:none;stroke-width:1px;stroke-linecap:butt;stroke-linejoin:miter;stroke-opacity:1"
         transform="translate(-319.61914,-325.13907)"><flowRegion
           id="flowRegion4449"><rect
             id="rect4451"
             width="140"
             height="140"
             x="380"
             y="372.36221"
             style="font-size:120px;fill:#ffffff" /></flowRegion><flowPara
           id="flowPara4453"
           style="font-style:normal;font-variant:normal;font-weight:bold;font-stretch:normal;font-size:120px;font-family:Arial;-inkscape-font-specification:'Arial Bold';text-align:center;text-anchor:middle;fill:#ffffff">A</flowPara></flowRoot>    </g>
    <g
       id="g4526"
       inkscape:export-filename="D:\Users\Ulrik\CloudStation\version-control\sr-webdev-public-transport-app\rc5\app\src\images\api-rejseplanen-route-b.png"
       inkscape:export-xdpi="30.857143"
       inkscape:export-ydpi="30.857143">
      <rect
         style="fill:#4bae4f;fill-rule:evenodd;stroke:none;stroke-width:1px;stroke-linecap:butt;stroke-linejoin:miter;stroke-opacity:1;fill-opacity:1"
         id="rect4393"
         width="140"
         height="139.99997"
         x="220"
         y="52.362225"
         rx="24" />
      <flowRoot
         transform="translate(-161.40625,-325.13907)"
         style="font-style:normal;font-weight:normal;font-size:120px;line-height:125%;font-family:sans-serif;letter-spacing:0px;word-spacing:0px;fill:#ffffff;fill-opacity:1;stroke:none;stroke-width:1px;stroke-linecap:butt;stroke-linejoin:miter;stroke-opacity:1"
         id="flowRoot4455"
         xml:space="preserve"><flowRegion
           id="flowRegion4457"><rect
             style="font-size:120px;fill:#ffffff"
             y="372.36221"
             x="380"
             height="140"
             width="140"
             id="rect4459" /></flowRegion><flowPara
           style="font-style:normal;font-variant:normal;font-weight:bold;font-stretch:normal;font-size:120px;font-family:Arial;-inkscape-font-specification:'Arial Bold';text-align:center;text-anchor:middle;fill:#ffffff"
           id="flowPara4461">B</flowPara></flowRoot>    </g>
    <g
       id="g4533"
       inkscape:export-filename="D:\Users\Ulrik\CloudStation\version-control\sr-webdev-public-transport-app\rc5\app\src\images\api-rejseplanen-route-c.png"
       inkscape:export-xdpi="30.857143"
       inkscape:export-ydpi="30.857143"
       transform="translate(160.10918,0.50507156)">
      <rect
         rx="24"
         y="52.362225"
         x="379.71429"
         height="139.99997"
         width="140"
         id="rect4395"
         style="fill:#fe9700;fill-opacity:1;fill-rule:evenodd;stroke:none;stroke-width:1px;stroke-linecap:butt;stroke-linejoin:miter;stroke-opacity:1" />
      <flowRoot
         xml:space="preserve"
         id="flowRoot4463"
         style="font-style:normal;font-weight:normal;font-size:120px;line-height:125%;font-family:sans-serif;letter-spacing:0px;word-spacing:0px;fill:#ffffff;fill-opacity:1;stroke:none;stroke-width:1px;stroke-linecap:butt;stroke-linejoin:miter;stroke-opacity:1"
         transform="translate(-0.02203369,-325.13907)"><flowRegion
           id="flowRegion4465"><rect
             id="rect4467"
             width="140"
             height="140"
             x="380"
             y="372.36221"
             style="font-size:120px;fill:#ffffff" /></flowRegion><flowPara
           id="flowPara4469"
           style="font-style:normal;font-variant:normal;font-weight:bold;font-stretch:normal;font-size:120px;font-family:Arial;-inkscape-font-specification:'Arial Bold';text-align:center;text-anchor:middle;fill:#ffffff">C</flowPara></flowRoot>    </g>
    <g
       id="g4540"
       inkscape:export-filename="D:\Users\Ulrik\CloudStation\version-control\sr-webdev-public-transport-app\rc5\app\src\images\api-rejseplanen-route-e.png"
       inkscape:export-xdpi="30.857143"
       inkscape:export-ydpi="30.857143"
       transform="translate(-480.32753,160.61425)">
      <rect
         style="fill:#6639b6;fill-opacity:1;fill-rule:evenodd;stroke:none;stroke-width:1px;stroke-linecap:butt;stroke-linejoin:miter;stroke-opacity:1"
         id="rect4397"
         width="140"
         height="139.99997"
         x="540.15302"
         y="52.362225"
         rx="24" />
      <flowRoot
         transform="translate(158.83466,-325.13907)"
         style="font-style:normal;font-weight:normal;font-size:120px;line-height:125%;font-family:sans-serif;letter-spacing:0px;word-spacing:0px;fill:#ffffff;fill-opacity:1;stroke:none;stroke-width:1px;stroke-linecap:butt;stroke-linejoin:miter;stroke-opacity:1"
         id="flowRoot4471"
         xml:space="preserve"><flowRegion
           id="flowRegion4473"><rect
             style="font-size:120px;fill:#ffffff"
             y="372.36221"
             x="380"
             height="140"
             width="140"
             id="rect4475" /></flowRegion><flowPara
           style="font-style:normal;font-variant:normal;font-weight:bold;font-stretch:normal;font-size:120px;font-family:Arial;-inkscape-font-specification:'Arial Bold';text-align:center;text-anchor:middle;fill:#ffffff"
           id="flowPara4477">E</flowPara></flowRoot>    </g>
    <g
       id="g4547"
       inkscape:export-filename="D:\Users\Ulrik\CloudStation\version-control\sr-webdev-public-transport-app\rc5\app\src\images\api-rejseplanen-route-f.png"
       inkscape:export-xdpi="30.857143"
       inkscape:export-ydpi="30.857143"
       transform="translate(159.09903,0)">
      <rect
         style="fill:#fec006;fill-opacity:1;fill-rule:evenodd;stroke:none;stroke-width:1px;stroke-linecap:butt;stroke-linejoin:miter;stroke-opacity:1"
         id="rect4399"
         width="140"
         height="139.99997"
         x="60"
         y="212.47141"
         rx="24" />
      <flowRoot
         transform="translate(-321.61133,-165.02989)"
         style="font-style:normal;font-weight:normal;font-size:120px;line-height:125%;font-family:sans-serif;letter-spacing:0px;word-spacing:0px;fill:#ffffff;fill-opacity:1;stroke:none;stroke-width:1px;stroke-linecap:butt;stroke-linejoin:miter;stroke-opacity:1"
         id="flowRoot4479"
         xml:space="preserve"><flowRegion
           id="flowRegion4481"><rect
             style="font-size:120px;fill:#ffffff"
             y="372.36221"
             x="380"
             height="140"
             width="140"
             id="rect4483" /></flowRegion><flowPara
           style="font-style:normal;font-variant:normal;font-weight:bold;font-stretch:normal;font-size:120px;font-family:Arial;-inkscape-font-specification:'Arial Bold';text-align:center;text-anchor:middle;fill:#ffffff"
           id="flowPara4485">F</flowPara></flowRoot>    </g>
    <g
       id="g4554"
       inkscape:export-filename="D:\Users\Ulrik\CloudStation\version-control\sr-webdev-public-transport-app\rc5\app\src\images\api-rejseplanen-route-h.png"
       inkscape:export-xdpi="30.857143"
       inkscape:export-ydpi="30.857143"
       transform="translate(159.09903,0)">
      <rect
         rx="24"
         y="212.47141"
         x="220"
         height="139.99997"
         width="140"
         id="rect4401"
         style="fill:#f34235;fill-opacity:1;fill-rule:evenodd;stroke:none;stroke-width:1px;stroke-linecap:butt;stroke-linejoin:miter;stroke-opacity:1" />
      <flowRoot
         xml:space="preserve"
         id="flowRoot4487"
         style="font-style:normal;font-weight:normal;font-size:120px;line-height:125%;font-family:sans-serif;letter-spacing:0px;word-spacing:0px;fill:#ffffff;fill-opacity:1;stroke:none;stroke-width:1px;stroke-linecap:butt;stroke-linejoin:miter;stroke-opacity:1"
         transform="translate(-159.76562,-165.02989)"><flowRegion
           id="flowRegion4489"><rect
             id="rect4491"
             width="140"
             height="140"
             x="380"
             y="372.36221"
             style="font-size:120px;fill:#ffffff" /></flowRegion><flowPara
           id="flowPara4493"
           style="font-style:normal;font-variant:normal;font-weight:bold;font-stretch:normal;font-size:120px;font-family:Arial;-inkscape-font-specification:'Arial Bold';text-align:center;text-anchor:middle;fill:#ffffff">H</flowPara></flowRoot>    </g>
    <g
       id="g4569"
       inkscape:export-filename="D:\Users\Ulrik\CloudStation\version-control\sr-webdev-public-transport-app\rc5\app\src\images\api-rejseplanen-route-re.png"
       inkscape:export-xdpi="30.857143"
       inkscape:export-ydpi="30.857143"
       transform="translate(0,-159.359)">
      <rect
         rx="24"
         y="532.68976"
         x="60"
         height="139.99997"
         width="140"
         id="rect4407"
         style="fill:#4bae4f;fill-opacity:1;fill-rule:evenodd;stroke:none;stroke-width:1px;stroke-linecap:butt;stroke-linejoin:miter;stroke-opacity:1" />
      <flowRoot
         xml:space="preserve"
         id="flowRoot4495"
         style="font-style:normal;font-weight:normal;font-size:40px;line-height:125%;font-family:sans-serif;letter-spacing:0px;word-spacing:0px;fill:#ffffff;fill-opacity:1;stroke:none;stroke-width:1px;stroke-linecap:butt;stroke-linejoin:miter;stroke-opacity:1"
         transform="translate(-321.67969,179.74683)"><flowRegion
           id="flowRegion4497"><rect
             id="rect4499"
             width="140"
             height="140"
             x="380"
             y="372.36221"
             style="fill:#ffffff" /></flowRegion><flowPara
           id="flowPara4501"
           style="font-style:italic;font-variant:normal;font-weight:bold;font-stretch:normal;font-size:80px;font-family:Arial;-inkscape-font-specification:'Arial Bold Italic';text-align:center;text-anchor:middle;fill:#ffffff">Re</flowPara></flowRoot>    </g>
    <g
       id="g4576"
       inkscape:export-filename="D:\Users\Ulrik\CloudStation\version-control\sr-webdev-public-transport-app\rc5\app\src\images\api-rejseplanen-route-ic.png"
       inkscape:export-xdpi="30.857143"
       inkscape:export-ydpi="30.857143"
       transform="translate(0,-159.359)">
      <rect
         style="fill:#e81d62;fill-opacity:1;fill-rule:evenodd;stroke:none;stroke-width:1px;stroke-linecap:butt;stroke-linejoin:miter;stroke-opacity:1"
         id="rect4409"
         width="140"
         height="139.99997"
         x="220"
         y="532.68976"
         rx="24" />
      <flowRoot
         transform="translate(-162.30469,180.21558)"
         style="font-style:normal;font-weight:normal;font-size:40px;line-height:125%;font-family:sans-serif;letter-spacing:0px;word-spacing:0px;fill:#ffffff;fill-opacity:1;stroke:none;stroke-width:1px;stroke-linecap:butt;stroke-linejoin:miter;stroke-opacity:1"
         id="flowRoot4503"
         xml:space="preserve"><flowRegion
           id="flowRegion4505"><rect
             style="fill:#ffffff"
             y="372.36221"
             x="380"
             height="140"
             width="140"
             id="rect4507" /></flowRegion><flowPara
           style="font-style:italic;font-variant:normal;font-weight:bold;font-stretch:normal;font-size:80px;font-family:Arial;-inkscape-font-specification:'Arial Bold Italic';text-align:center;text-anchor:middle;fill:#ffffff"
           id="flowPara4509">IC</flowPara></flowRoot>    </g>
    <g
       id="g5365"
       inkscape:export-filename="D:\Users\Ulrik\CloudStation\version-control\sr-webdev-public-transport-app\rc5\app\src\images\api-rejseplanen-route-m1.png"
       inkscape:export-xdpi="30.857143"
       inkscape:export-ydpi="30.857143"
       transform="translate(0,-319.42857)">
      <g
         inkscape:export-ydpi="30.857143"
         inkscape:export-xdpi="30.857143"
         inkscape:export-filename="D:\Users\Ulrik\CloudStation\version-control\sr-webdev-public-transport-app\rc5\app\src\images\api-rejseplanen-route-m1.png"
         id="g4631">
        <circle
           style="fill:#009587;fill-opacity:1;stroke:none;stroke-width:1;stroke-linecap:round;stroke-miterlimit:4;stroke-dasharray:none;stroke-dashoffset:35.19956207;stroke-opacity:1"
           id="path4511"
           cx="130"
           cy="922.36218"
           r="70" />
      </g>
      <flowRoot
         transform="translate(-316.77002,506.27175)"
         style="font-style:normal;font-weight:normal;font-size:40px;line-height:125%;font-family:sans-serif;letter-spacing:0px;word-spacing:0px;fill:#ffffff;fill-opacity:1;stroke:none;stroke-width:1px;stroke-linecap:butt;stroke-linejoin:miter;stroke-opacity:1"
         id="flowRoot4561"
         xml:space="preserve"><flowRegion
           id="flowRegion4563"><rect
             style="fill:#ffffff"
             y="372.36221"
             x="380"
             height="140"
             width="140"
             id="rect4565" /></flowRegion><flowPara
           style="font-style:normal;font-variant:normal;font-weight:bold;font-stretch:normal;font-size:70px;font-family:Arial;-inkscape-font-specification:'Arial Bold';text-align:center;text-anchor:middle;fill:#ffffff"
           id="flowPara4567">M1</flowPara></flowRoot>    </g>
    <g
       id="g5373"
       inkscape:export-filename="D:\Users\Ulrik\CloudStation\version-control\sr-webdev-public-transport-app\rc5\app\src\images\api-rejseplanen-route-m2.png"
       inkscape:export-xdpi="30.857143"
       inkscape:export-ydpi="30.857143"
       transform="translate(0,-319.42857)">
      <g
         id="g4628">
        <circle
           r="70"
           cy="922.36218"
           cx="290.61426"
           id="circle4513"
           style="fill:#feea3a;fill-opacity:1;stroke:none;stroke-width:1;stroke-linecap:round;stroke-miterlimit:4;stroke-dasharray:none;stroke-dashoffset:35.19956207;stroke-opacity:1" />
      </g>
      <flowRoot
         xml:space="preserve"
         id="flowRoot4590"
         style="font-style:normal;font-weight:normal;font-size:40px;line-height:125%;font-family:sans-serif;letter-spacing:0px;word-spacing:0px;fill:#ffffff;fill-opacity:1;stroke:none;stroke-width:1px;stroke-linecap:butt;stroke-linejoin:miter;stroke-opacity:1"
         transform="translate(-160.08643,506.27175)"><flowRegion
           id="flowRegion4592"><rect
             id="rect4594"
             width="140"
             height="140"
             x="380"
             y="372.36221"
             style="fill:#ffffff" /></flowRegion><flowPara
           id="flowPara4596"
           style="font-style:normal;font-variant:normal;font-weight:bold;font-stretch:normal;font-size:70px;font-family:Arial;-inkscape-font-specification:'Arial Bold';text-align:center;text-anchor:middle;fill:#000000;fill-opacity:1">M2</flowPara></flowRoot>    </g>
    <g
       id="g4621"
       inkscape:export-filename="D:\Users\Ulrik\CloudStation\version-control\sr-webdev-public-transport-app\rc5\app\src\images\api-rejseplanen-route-m3.png"
       inkscape:export-xdpi="30.857143"
       inkscape:export-ydpi="30.857143"
       transform="translate(0,-319.42857)">
      <circle
         style="fill:#3e50b4;fill-opacity:1;stroke:none;stroke-width:1;stroke-linecap:round;stroke-miterlimit:4;stroke-dasharray:none;stroke-dashoffset:35.19956207;stroke-opacity:1"
         id="circle4515"
         cx="449.20819"
         cy="922.36218"
         r="70" />
      <flowRoot
         xml:space="preserve"
         id="flowRoot4598"
         style="font-style:normal;font-weight:normal;font-size:40px;line-height:125%;font-family:sans-serif;letter-spacing:0px;word-spacing:0px;fill:#ffffff;fill-opacity:1;stroke:none;stroke-width:1px;stroke-linecap:butt;stroke-linejoin:miter;stroke-opacity:1"
         transform="translate(-1.7488403,505.84451)"><flowRegion
           id="flowRegion4600"><rect
             id="rect4602"
             width="140"
             height="140"
             x="380"
             y="372.36221"
             style="fill:#ffffff" /></flowRegion><flowPara
           id="flowPara4604"
           style="font-style:normal;font-variant:normal;font-weight:bold;font-stretch:normal;font-size:70px;font-family:Arial;-inkscape-font-specification:'Arial Bold';text-align:center;text-anchor:middle;fill:#ffffff">M3</flowPara></flowRoot>    </g>
    <g
       id="g4614"
       inkscape:export-filename="D:\Users\Ulrik\CloudStation\version-control\sr-webdev-public-transport-app\rc5\app\src\images\api-rejseplanen-route-m4.png"
       inkscape:export-xdpi="30.857143"
       inkscape:export-ydpi="30.857143"
       transform="translate(0,-319.42857)">
      <circle
         r="70"
         cy="922.36218"
         cx="609.82245"
         id="circle4517"
         style="fill:#fe5621;fill-opacity:1;stroke:none;stroke-width:1;stroke-linecap:round;stroke-miterlimit:4;stroke-dasharray:none;stroke-dashoffset:35.19956207;stroke-opacity:1" />
      <flowRoot
         transform="translate(158.16473,506.27175)"
         style="font-style:normal;font-weight:normal;font-size:40px;line-height:125%;font-family:sans-serif;letter-spacing:0px;word-spacing:0px;fill:#ffffff;fill-opacity:1;stroke:none;stroke-width:1px;stroke-linecap:butt;stroke-linejoin:miter;stroke-opacity:1"
         id="flowRoot4606"
         xml:space="preserve"><flowRegion
           id="flowRegion4608"><rect
             style="fill:#ffffff"
             y="372.36221"
             x="380"
             height="140"
             width="140"
             id="rect4610" /></flowRegion><flowPara
           style="font-style:normal;font-variant:normal;font-weight:bold;font-stretch:normal;font-size:70px;font-family:Arial;-inkscape-font-specification:'Arial Bold';text-align:center;text-anchor:middle;fill:#ffffff"
           id="flowPara4612">M4</flowPara></flowRoot>    </g>
    <rect
       rx="23.24761"
       y="696.03998"
       x="63.503216"
       height="135.61104"
       width="135.61107"
       id="rect4413"
       style="fill:none;fill-opacity:1;fill-rule:evenodd;stroke:#000000;stroke-width:0;stroke-linecap:butt;stroke-linejoin:miter;stroke-miterlimit:4;stroke-dasharray:none;stroke-opacity:1" />
    <g
       id="g4294"
       inkscape:export-xdpi="30.857143"
       inkscape:export-ydpi="30.857143"
       transform="translate(0,-158.57143)">
      <path
         inkscape:export-ydpi="30.857143"
         inkscape:export-xdpi="30.857143"
         inkscape:connector-curvature="0"
         id="path4263"
         d="m 264.65338,967.49466 c -3.72753,-1.16891 -4.27549,-5.96476 -2.14291,-8.79902 5.11935,-10.57204 10.46517,-21.03707 15.52244,-31.63683 -0.60948,-3.82715 -2.04336,-8.33388 0.17769,-12.20064 1.48607,-4.03149 3.26186,-8.06241 4.5497,-12.10116 -3.7064,0.10381 -6.97429,1.67556 -6.7445,5.83832 -1.33285,3.54021 -0.79904,8.11209 -3.63148,10.90235 -3.02103,2.58065 -8.20318,-0.62751 -7.05747,-4.50288 1.1694,-5.49199 2.37852,-10.99436 3.92329,-16.39223 1.71414,-3.30249 6.18104,-2.92275 9.24298,-4.19408 4.09787,-0.94371 8.06388,-2.63255 12.24977,-3.07003 3.58929,-0.0472 7.24846,1.50703 10.09136,3.60396 2.70461,4.13056 3.73179,9.11732 5.59135,13.65654 1.04976,3.80869 5.8669,3.94161 8.76817,5.85619 3.23808,0.71031 5.31993,4.88614 2.94137,7.55443 -3.31991,3.69062 -7.9299,-0.23987 -11.42784,-1.52195 -3.08287,-1.50025 -7.17593,-2.49518 -7.87509,-6.43205 -0.41216,-1.76962 -1.47071,-4.12285 -2.08595,-1.08945 -1.4361,3.77704 -2.92248,7.53467 -4.3907,11.29927 5.31205,12.24818 10.80233,24.42448 16.026,36.70661 1.94323,4.59323 -4.44913,9.00917 -8.08057,5.62675 -2.45124,-2.7757 -3.28321,-6.60369 -4.97994,-9.85418 -3.20979,-7.17619 -6.13421,-14.49208 -9.55767,-21.56528 -5.4509,10.10736 -10.08827,20.65031 -15.54154,30.76117 -1.29311,1.58566 -3.64056,2.25297 -5.56846,1.55419 z m 35.39984,-76.71962 c -5.32644,-0.62924 -8.08714,-7.68328 -4.62017,-11.73589 2.91181,-4.14198 10.03852,-3.64694 12.22005,0.9788 2.68476,4.44162 -0.86182,10.83725 -6.08589,10.81965 l -0.74855,0.004 -0.76544,-0.0663 0,0 z"
         style="fill:#363f45;fill-opacity:1" />
      <circle
         inkscape:export-ydpi="30.857143"
         inkscape:export-xdpi="30.857143"
         style="fill:none;fill-opacity:1;stroke:#363f45;stroke-width:4.77832508;stroke-linecap:round;stroke-miterlimit:4;stroke-dasharray:none;stroke-dashoffset:35.19956207;stroke-opacity:1"
         id="circle4273"
         cx="290.21426"
         cy="922.00507"
         r="66.896553" />
    </g>
    <path
       style="fill:#000000"
       d=""
       id="path3455"
       inkscape:connector-curvature="0" />
    <g
       id="g3505">
      <path
         inkscape:connector-curvature="0"
         id="path3457"
         d="m 69.491186,982.79228 c -8.077909,-1.1245 -12.34629,-10.91067 -8.328113,-17.77057 18.531469,-33.42879 37.739427,-66.48849 57.346477,-99.29753 3.16758,-7.34112 13.67619,-10.0733 19.42147,-4.04029 5.34801,6.59965 9.00022,14.48348 13.55842,21.65914 15.99235,27.47699 32.19942,54.84556 47.40435,82.76808 3.18468,6.9929 -1.44732,15.69399 -9.14181,16.70964 -26.70032,1.16969 -53.46186,0.66004 -80.18689,0.73399 -13.353285,-0.18155 -26.743849,0.0606 -40.073904,-0.76246 z"
         style="fill:#f44336" />
      <flowRoot
         transform="matrix(1.178615,0,0,1.178615,-25.977056,-185.29182)"
         style="font-style:normal;font-variant:normal;font-weight:500;font-stretch:normal;font-size:90px;line-height:125%;font-family:Roboto;-inkscape-font-specification:'Roboto Medium';letter-spacing:0px;word-spacing:0px;fill:#ffffff;fill-opacity:1;stroke:none;stroke-width:1px;stroke-linecap:butt;stroke-linejoin:miter;stroke-opacity:1"
         id="flowRoot3460"
         xml:space="preserve"><flowRegion
           id="flowRegion3462"><rect
             style="font-style:normal;font-variant:normal;font-weight:500;font-stretch:normal;font-size:90px;font-family:Roboto;-inkscape-font-specification:'Roboto Medium';fill:#ffffff"
             y="886.64795"
             x="119.64286"
             height="114.28571"
             width="53.928574"
             id="rect3464" /></flowRegion><flowPara
           style="font-style:normal;font-variant:normal;font-weight:normal;font-stretch:normal;font-size:90px;font-family:Roboto;-inkscape-font-specification:Roboto;fill:#ffffff"
           id="flowPara3466">!</flowPara></flowRoot>    </g>
    <g
       id="g3512"
       inkscape:export-xdpi="30.860001"
       inkscape:export-ydpi="30.860001">
      <circle
         style="fill:#f44336;fill-opacity:1;stroke:none;stroke-width:1;stroke-linecap:round;stroke-miterlimit:4;stroke-dasharray:none;stroke-dashoffset:35.19956207;stroke-opacity:1"
         id="circle3477"
         cx="290.61426"
         cy="922.14185"
         r="70" />
      <flowRoot
         xml:space="preserve"
         id="flowRoot3497"
         style="font-style:normal;font-variant:normal;font-weight:500;font-stretch:normal;font-size:90px;line-height:125%;font-family:Roboto;-inkscape-font-specification:'Roboto Medium';letter-spacing:0px;word-spacing:0px;fill:#ffffff;fill-opacity:1;stroke:none;stroke-width:1px;stroke-linecap:butt;stroke-linejoin:miter;stroke-opacity:1"
         transform="matrix(1.178615,0,0,1.178615,134.86616,-190.13923)"><flowRegion
           id="flowRegion3499"><rect
             id="rect3501"
             width="53.928574"
             height="114.28571"
             x="119.64286"
             y="886.64795"
             style="font-style:normal;font-variant:normal;font-weight:500;font-stretch:normal;font-size:90px;font-family:Roboto;-inkscape-font-specification:'Roboto Medium';fill:#ffffff" /></flowRegion><flowPara
           id="flowPara3503"
           style="font-style:normal;font-variant:normal;font-weight:normal;font-stretch:normal;font-size:90px;font-family:Roboto;-inkscape-font-specification:Roboto;fill:#ffffff">!</flowPara></flowRoot>    </g>
    <g
       transform="translate(321.2082,-160.57143)"
       id="g4257">
      <g
         id="g4296"
         inkscape:export-xdpi="30.700506"
         inkscape:export-ydpi="30.700506">
        <circle
           r="67.931038"
           cy="922.36218"
           cx="129.28572"
           id="circle4268"
           style="fill:none;fill-opacity:1;stroke:#363f45;stroke-width:4.85221672;stroke-linecap:round;stroke-miterlimit:4;stroke-dasharray:none;stroke-dashoffset:35.19956207;stroke-opacity:1" />
        <path
           inkscape:connector-curvature="0"
           id="path4294"
           d="m 101.64411,951.54634 c -3.367561,-1.28666 -5.225471,-4.06142 -5.231301,-7.81295 -0.002,-1.16006 0.20046,-2.5954 0.44946,-3.18964 1.60188,-3.8226 6.059811,-5.78644 10.399691,-4.58133 1.98003,0.54982 4.41009,3.10551 5.06285,5.32458 0.66528,2.26162 0.66733,2.81789 0.0184,5.00305 -0.61475,2.0701 -2.09028,3.86061 -3.97292,4.82106 -1.75823,0.89698 -4.97316,1.10502 -6.72619,0.43523 z m 50.16191,0.19393 c -2.752,-0.83712 -4.7342,-2.7931 -5.52328,-5.45022 -0.64893,-2.18516 -0.64688,-2.74143 0.0184,-5.00305 0.65277,-2.21907 3.08283,-4.77476 5.06286,-5.32458 4.33987,-1.20511 8.7978,0.75873 10.39968,4.58133 0.73574,1.75574 0.57057,5.03172 -0.35378,7.01691 -1.57711,3.38708 -5.95123,5.2907 -9.60388,4.17961 z m -64.497471,-10.75014 -0.99134,-0.99133 0.0939,-20.58055 c 0.093,-20.38648 0.10072,-20.5934 0.82235,-21.94133 0.90342,-1.68748 2.51282,-3.28741 4.10375,-4.07959 1.13594,-0.56564 3.19285,-0.60866 33.088121,-0.69211 35.18456,-0.0982 33.73935,-0.17705 36.96512,2.01661 1.00429,0.68296 1.96189,1.72684 2.54826,2.77787 0.51666,0.92607 2.56171,5.98749 4.54456,11.24761 l 3.60519,9.56384 0.12239,9.94632 c 0.14211,11.54914 0.0681,11.96138 -2.34345,13.05589 -1.89139,0.85844 -4.29334,0.9035 -4.29371,0.0806 -7e-4,-1.15743 -1.98806,-4.75979 -3.36154,-6.09271 -0.76964,-0.74691 -2.25445,-1.77793 -3.29958,-2.29119 -1.62531,-0.79814 -2.31311,-0.93315 -4.7541,-0.93315 -2.44313,0 -3.12822,0.1347 -4.76011,0.9361 -2.75354,1.35221 -5.48195,4.40303 -6.23767,6.97483 l -0.58557,1.99274 -13.26211,0 -13.2621,0 -0.58557,-1.99274 c -0.75573,-2.5718 -3.48413,-5.62262 -6.23767,-6.97483 -1.63854,-0.80465 -2.30703,-0.93496 -4.76011,-0.92784 -2.30505,0.007 -3.16251,0.15999 -4.45877,0.79714 -3.239631,1.59246 -6.150471,5.03073 -6.779511,8.00803 l -0.23056,1.09118 -2.34939,0 c -2.1544,0 -2.43168,-0.0823 -3.34074,-0.99137 z m 22.855081,-22.27824 c 0.66479,-0.22897 1.49228,-0.88973 1.93056,-1.54157 0.73748,-1.09685 0.76706,-1.4089 0.76706,-8.09227 0,-6.68538 -0.0293,-6.99511 -0.76771,-8.09228 -1.22066,-1.81393 -2.43354,-2.04487 -10.08642,-1.92051 l -6.657261,0.10817 -1.14891,1.25413 -1.14892,1.25413 0,7.37974 0,7.37974 1.02386,1.1661 c 0.56312,0.64136 1.43187,1.22833 1.93056,1.30438 2.1917,0.33422 13.051731,0.18098 14.157181,-0.19976 z m 27.23572,-0.31902 c 1.68783,-1.14714 1.81823,-1.81518 1.81823,-9.31482 0,-10.23428 0.32516,-9.90462 -9.76912,-9.90462 -10.20213,0 -9.98669,-0.18487 -10.15219,8.71202 -0.0616,3.31431 -0.015,6.67321 0.10358,7.46424 0.23719,1.58164 1.66012,3.30713 2.94917,3.57625 0.41392,0.0864 3.77434,0.13452 7.46758,0.10691 5.79792,-0.0434 6.8335,-0.13075 7.58275,-0.63998 z m 25.32069,0.43148 c 1.60609,-0.37093 2.85387,-1.69459 2.85387,-3.02744 0,-1.23059 -4.24219,-13.29602 -5.10877,-14.5301 -1.13452,-1.61567 -2.4101,-2.03503 -6.64246,-2.18377 -4.64494,-0.16323 -6.16741,0.23413 -7.29027,1.90273 -0.73833,1.09717 -0.76772,1.4069 -0.76772,8.09228 0,6.68337 0.0296,6.99542 0.76707,8.09227 0.43828,0.65184 1.26577,1.3126 1.93056,1.54157 1.40276,0.48315 12.28114,0.56894 14.25772,0.11246 z"
           style="fill:#363f45;fill-opacity:1" />
      </g>
    </g>
    <g
       id="g4278"
       inkscape:export-filename="D:\Users\Ulrik\CloudStation\version-control\sr-webdev-public-transport-app\rc5\app\src\images\api-rejseplanen-route-bx.png"
       inkscape:export-xdpi="30.857143"
       inkscape:export-ydpi="30.857143">
      <rect
         rx="24"
         y="52.362225"
         x="380.10919"
         height="139.99997"
         width="140"
         id="rect4263"
         style="fill:#4bae4f;fill-opacity:1;fill-rule:evenodd;stroke:none;stroke-width:1px;stroke-linecap:butt;stroke-linejoin:miter;stroke-opacity:1" />
      <flowRoot
         xml:space="preserve"
         id="flowRoot4265"
         style="font-style:normal;font-weight:normal;font-size:120px;line-height:125%;font-family:sans-serif;letter-spacing:0px;word-spacing:0px;fill:#ffffff;fill-opacity:1;stroke:none;stroke-width:1px;stroke-linecap:butt;stroke-linejoin:miter;stroke-opacity:1"
         transform="translate(-2.4298706,-300.09242)"><flowRegion
           id="flowRegion4267"><rect
             id="rect4269"
             width="140"
             height="140"
             x="380"
             y="372.36221"
             style="font-size:120px;fill:#ffffff" /></flowRegion><flowPara
           id="flowPara4271"
           style="font-style:normal;font-variant:normal;font-weight:bold;font-stretch:normal;font-size:80px;font-family:Arial;-inkscape-font-specification:'Arial Bold';text-align:center;text-anchor:middle;fill:#ffffff">Bx</flowPara></flowRoot>    </g>
    <flowRoot
       xml:space="preserve"
       id="flowRoot4273"
       style="font-style:normal;font-weight:normal;font-size:40px;line-height:125%;font-family:sans-serif;letter-spacing:0px;word-spacing:0px;fill:#000000;fill-opacity:1;stroke:none;stroke-width:1px;stroke-linecap:butt;stroke-linejoin:miter;stroke-opacity:1"
       transform="translate(571.42857,-154.28571)"><flowRegion
         id="flowRegion4275"><rect
           id="rect4277"
           width="1579.8785"
           height="80.812225"
           x="-561.64484"
           y="1230.149" /></flowRegion><flowPara
         style="font-size:11.25px"
         id="flowPara4324">Local train/tram icon courtesy of http://free-icon-rainbow.com/license/</flowPara><flowPara
         style="font-size:11.25px"
         id="flowPara4328">Ferry icon by permission of Wikimedia commons: https://commons.wikimedia.org/wiki/File:BSicon_FERRY.svg</flowPara></flowRoot>    <g
       id="g4330"
       inkscape:export-xdpi="30.700506"
       inkscape:export-ydpi="30.700506">
      <path
         style="fill:#363f45;fill-opacity:1"
         inkscape:connector-curvature="0"
         id="path6"
         d="m 651.40159,778.84086 14.32322,-19.72953 -14.32322,0 -8.79989,-11.39773 c 0,0 -0.39786,-0.32765 -1.217,-0.91275 -0.84254,-0.5851 -2.43401,-0.67872 -2.43401,-0.67872 l -11.39773,0 0,-4.00207 -5.17226,0 -2.9021,-6.78715 -3.74463,0 1.49785,3.76804 -2.12976,3.01911 -13.64447,0 0,4.00207 -22.23377,0 c 0,0 -1.96593,0 -3.20634,1.05318 -1.68509,1.40424 -1.89572,2.52763 -1.89572,2.52763 l -3.60421,9.40839 -7.98075,0 -7.55947,19.72953 c 0,0 8.75308,-5.38291 22.74864,-4.68079 11.39773,0.67871 15.84448,4.58717 28.83368,4.58717 7.09137,0 17.66995,-3.5574 25.81453,-3.69782 5.99141,-0.0936 15.75086,2.45741 19.02741,3.79144 m -6.24885,8.98712 c -4.77441,-1.1702 -11.30411,-3.13614 -22.77204,-0.72553 -5.66376,1.1702 -11.02327,2.43401 -16.28913,2.57443 -6.85736,0.0234 -10.6488,-1.17019 -15.9615,-2.48081 -4.77441,-1.24041 -10.34455,-2.27019 -14.55726,-2.22338 -7.34884,0.11702 -12.96579,1.28722 -16.07852,2.66805 l 2.24678,-6.08502 c 6.08503,-2.05955 16.45298,-3.25315 28.389,0.16382 5.03185,1.54467 10.22753,2.55103 15.54022,2.48082 4.79779,-0.0936 9.40837,-0.81913 14.13597,-1.84891 15.11895,-3.51059 20.85292,-1.12339 28.52941,0.91276 l -3.18293,4.56377 z m 0.14042,-28.71665 -14.01897,0 0,-8.54245 5.47653,0 c 0,0 1.12339,0.14043 2.41061,0.95957 0.77233,0.46808 2.31699,2.57443 2.31699,2.57443 l 3.81484,5.00845 z m -35.97187,0 -14.55723,0 0,-8.54245 14.55723,0 0,8.54245 z m -30.96342,-6.45949 c 0,0 0.37447,-0.93616 0.98297,-1.38083 0.81914,-0.5617 1.56806,-0.70213 1.56806,-0.70213 l 10.15733,0 0,8.54245 -15.16577,0 2.45741,-6.45949 z m 49.19509,6.45949 -14.65087,0 0.0468,-8.54245 14.60406,0 0,8.54245 z" />
      <circle
         r="67.931038"
         cy="762.50507"
         cx="610.35107"
         id="circle4285"
         style="fill:none;fill-opacity:1;stroke:#363f45;stroke-width:4.85221672;stroke-linecap:round;stroke-miterlimit:4;stroke-dasharray:none;stroke-dashoffset:35.19956207;stroke-opacity:1" />
    </g>
    <g
       id="g4318"
       inkscape:export-xdpi="30.700506"
       inkscape:export-ydpi="30.700506">
      <circle
         r="67.931038"
         cy="763.79077"
         cx="129.28572"
         id="path4271"
         style="fill:none;fill-opacity:1;stroke:#363f45;stroke-width:4.85221672;stroke-linecap:round;stroke-miterlimit:4;stroke-dasharray:none;stroke-dashoffset:35.19956207;stroke-opacity:1" />
      <g
         transform="matrix(0.20184402,0,0,0.20184402,183.06273,587.54354)"
         style="fill:#363f45;fill-opacity:1"
         id="g4309">
        <path
           id="path7"
           style="fill:#363f45;fill-opacity:1"
           d="m -522.42857,928.54682 0,47.442 73.09,0 8.11,0.016 c -0.078,0.714 -0.16,1.507 -0.16,2.222 0,12.562 10.16,22.71798 22.722,22.71798 12.481,0 22.641,-10.15598 22.641,-22.71798 0,-0.719 0,-1.52 -0.082,-2.238 l 16.891,0 1.75,0.016 c -0.078,0.714 -0.082,1.507 -0.082,2.222 0,12.562 10.16,22.71798 22.64,22.71798 12.563,0 22.723,-10.15598 22.723,-22.71798 0,-0.719 0,-1.52 -0.082,-2.238 l 131.359,0 0.242,0 c 0,0.718 -0.082,1.519 -0.082,2.238 0,12.562 10.16,22.71798 22.722,22.71798 12.477,0 22.641,-10.15598 22.641,-22.71798 0,-0.719 0,-1.52 -0.082,-2.238 l 16.887,0 1.754,0.016 c -0.078,0.714 -0.082,1.507 -0.082,2.222 0,12.562 10.161,22.71798 22.641,22.71798 12.562,0 22.719,-10.15598 22.719,-22.71798 0,-0.719 -0.078,-1.52 -0.078,-2.238 l 80.793,0 0.246,0 0,0 0.159,0 0,-47.442 -512,0 z"
           class="st0"
           inkscape:connector-curvature="0" />
        <path
           id="path9"
           style="fill:#363f45;fill-opacity:1"
           d="m -30.42857,745.42582 -472.078,0 c -11.043,0 -19.922,8.961 -19.922,19.922 l 0,147.199 512,0 0,-147.199 c 0,-10.961 -8.961,-19.922 -20,-19.922 z m -12.718,49.922 0,79.84 -54.481,0 0,-97.121 37.199,0 c 9.519,0 17.282,7.762 17.282,17.281 z m -73.52,-17.281 0,97.121 -87.121,0 0,-97.121 87.121,0 z m -106.243,97.121 -87.117,0 0,-97.121 87.117,0 0,96.984 0,0.137 z m -106.16,-97.121 0,97.121 -87.199,0 0,-97.121 87.199,0 z m -106.238,97.121 -54.48,0 0,-79.84 c 0,-9.519 7.762,-17.281 17.281,-17.281 l 37.199,0 0,96.984 0,0.137 z"
           class="st0"
           inkscape:connector-curvature="0" />
      </g>
    </g>
  </g>
</svg>
